<svg width="39" height="84" viewBox="0 0 39 84" fill="none" xmlns="http://www.w3.org/2000/svg">
<path d="M16 12.5L20.5 16.5V20L18.5 28L22.5 32.5L23.5 38.5L22 53L27 79.5L23.5 83.5H17.5L13.5 72.5L11 46.5L13.5 32L16 28L10 24.5L7.5 17.5L11 14L16 12.5Z" fill="#D9D9D9"/>
<path d="M13.968 15.812C17.2107 16.4947 18.832 17.9453 18.832 20.164C17.9787 22.5533 16.6133 23.748 14.736 23.748C11.5787 23.1507 10 21.572 10 19.012C10.8533 16.8787 12.176 15.812 13.968 15.812ZM18.832 33.732C20.1973 33.732 21.3493 34.9693 22.288 37.444L21.136 46.532V52.548C21.136 59.5453 22.3307 68.7187 24.72 80.068C23.8667 81.6893 22.416 82.5 20.368 82.5C16.8693 82.5 14.5653 72.26 13.456 51.78V47.3C13.456 38.2547 15.248 33.732 18.832 33.732Z" fill="black"/>
</svg>
