<svg width="587" height="199" viewBox="0 0 587 199" fill="none" xmlns="http://www.w3.org/2000/svg">
<g filter="url(#filter0_d_15_4)">
<path d="M8.5164 62.071L147.5 69.367L289.224 49.6861L430.47 13.4873L487.817 31.3317L571.175 12.8448L558.584 41.054L570.887 72.7206L582.604 102.804L582.419 141.359L434.24 156.881L299.289 159.612L19.76 190.585L8.12187 143.982L27.3577 123.316L8.5164 62.071Z" fill="white"/>
</g>
<path d="M51.0623 117.642L51.9438 126.8L63.8354 125.037C63.1103 116.749 62.4738 107.944 61.926 98.623L72.5295 98.659C72.7904 107.149 73.3531 116.334 74.2177 126.217C75.0777 136.046 76.2345 145.902 77.6881 155.787L67.4104 155.803C66.5325 151.275 65.5988 143.969 64.6093 133.883L52.9568 135.625C53.7763 143.156 54.6871 150.812 55.6892 158.595L44.7669 158.587C43.2017 147.427 42.0077 137.146 41.1849 127.741C40.3622 118.337 39.8635 110.19 39.6889 103.299L50.2924 103.335C50.3873 108.091 50.6439 112.86 51.0623 117.642ZM87.5026 155.008C86.5557 146.632 85.7545 138.699 85.0991 131.207C84.4437 123.716 84.0158 113.929 83.8153 101.847C92.7798 99.6712 101.592 98.2043 110.252 97.4466L111.11 107.249C105.106 107.774 99.5438 108.448 94.4227 109.271C94.7308 115.24 94.9977 119.821 95.2235 123.014C99.2103 122.076 103.962 121.312 109.478 120.723L111.759 129.357C108.204 129.721 102.899 130.587 95.845 131.954C96.4028 138.329 96.8315 142.923 97.131 145.734C101.721 144.958 107.177 143.677 113.498 141.893L115.62 150.541C111.285 153.008 106.036 154.511 99.8734 155.05L87.5026 155.008ZM152.082 92.5021L155.404 129.554C155.938 135.664 156.3 142.244 156.488 149.294L147.486 149.198C139.27 134.231 132.644 123.059 127.609 115.683C128.35 123.542 129.474 136.078 130.98 153.293L121.565 153.072C121.117 149.792 120.759 146.611 120.489 143.53C119.364 130.672 118.771 115.627 118.708 98.3932L129.398 98.5019C135.927 112.546 141.62 123.157 146.478 130.334C144.755 114.317 143.277 101.704 142.043 92.497L152.082 92.5021ZM165.497 148.586C165.072 135.775 164.422 124.374 163.548 114.386C162.675 104.397 162.074 97.8382 161.747 94.7081C167.349 91.4341 173.312 89.5204 179.634 88.9673C184.31 88.5582 188.345 89.7042 191.74 92.4053C195.188 95.1017 197.149 99.1595 197.623 104.579C198.172 110.848 194.263 117.267 185.897 123.834C191.262 129.468 196.786 135.704 202.47 142.541L195.315 148.869C191.526 144.114 184.802 136.404 175.142 125.739C175.698 133.935 176.131 141.633 176.44 148.834L165.497 148.586ZM174.907 120.299C178.676 118.095 181.823 115.518 184.349 112.566C186.87 109.562 188.033 106.944 187.838 104.712C187.642 102.481 186.827 100.812 185.392 99.7063C184.01 98.5959 182.256 98.1336 180.131 98.3196C178.006 98.5055 175.708 99.1616 173.237 100.288C174.022 109.267 174.579 115.937 174.907 120.299ZM213.863 128.294L213.326 122.157C205.079 108.049 200.299 97.7864 198.989 91.3696L209.034 91.4544C210.724 97.3027 213.79 104.208 218.235 112.171C221.803 102.169 224.47 93.1823 226.235 85.2114L235.557 85.2793C232.606 96.8338 228.874 108.644 224.362 120.71C224.674 125.501 224.988 129.703 225.304 133.316C225.621 136.928 226.045 140.559 226.579 144.206L215.961 144.011C215.051 139.111 214.351 133.872 213.863 128.294ZM285.832 82.0854L286.689 91.8879C280.739 92.4085 275.176 93.0826 270.002 93.91C270.031 95.4601 270.164 98.2056 270.401 102.147C270.688 106.03 270.844 108.425 270.87 109.333C276.75 108.016 281.497 107.199 285.11 106.883L287.471 115.51C281.534 116.19 276.227 117.029 271.55 118.027C272.275 126.315 273.02 133.611 273.786 139.915L262.923 139.661C262.063 131.063 261.311 123.072 260.664 115.687C260.018 108.302 259.595 98.5681 259.395 86.4863C268.359 84.31 277.171 82.8431 285.832 82.0854ZM318.604 116.078C318.485 117.16 318.499 118.55 318.648 120.25C318.792 121.898 319.272 123.408 320.088 124.782C320.958 126.152 321.977 126.785 323.146 126.683C324.74 126.544 325.775 125.222 326.252 122.717C326.777 120.155 326.912 117.413 326.656 114.491C325.587 102.271 324.038 90.0659 322.008 77.8764L333.328 77.8497C334.909 87.3481 336.324 99.2433 337.575 113.535C337.993 118.317 337.357 122.977 335.666 127.515C334.803 129.893 333.452 131.885 331.611 133.491C329.829 135.146 327.689 136.083 325.192 136.301C320.729 136.692 317.008 135.465 314.028 132.62C311.044 129.723 309.35 125.963 308.946 121.34C308.806 119.746 308.863 117.948 309.116 115.945L318.604 116.078ZM363.645 133.258C358.598 133.7 354.123 131.816 350.222 127.607C346.368 123.34 344.037 116.584 343.229 107.339C342.415 98.0412 343.639 90.3051 346.9 84.1307C350.214 77.9517 354.448 74.6367 359.601 74.1859C364.755 73.735 369.232 75.6454 373.032 79.9171C376.885 84.1842 379.214 90.9135 380.018 100.105C380.822 109.297 379.57 117.008 376.26 123.241C372.951 129.473 368.746 132.812 363.645 133.258ZM360.511 83.6627C358.173 83.8672 356.335 86.1159 354.998 90.4088C353.656 94.6486 353.259 99.9032 353.807 106.173C354.351 112.389 355.473 116.948 357.172 119.851C358.92 122.697 360.883 124.024 363.062 123.833C365.24 123.643 366.971 121.403 368.256 117.115C369.593 112.822 369.99 107.567 369.446 101.351C368.898 95.0818 367.776 90.5222 366.082 87.6724C364.44 84.818 362.583 83.4814 360.511 83.6627ZM396.773 87.3964L397.655 96.5544L409.546 94.7913C408.821 86.503 408.184 77.6983 407.637 68.3772L418.24 68.4132C418.501 76.9028 419.064 86.0887 419.928 95.9709C420.788 105.8 421.945 115.657 423.399 125.541L413.121 125.557C412.243 121.029 411.309 113.723 410.32 103.638L398.668 105.38C399.487 112.91 400.398 120.567 401.4 128.349L390.478 128.341C388.912 117.182 387.718 106.9 386.896 97.4957C386.073 88.0916 385.574 79.9441 385.4 73.0531L396.003 73.0891C396.098 77.8456 396.355 82.6147 396.773 87.3964ZM455.271 121.709L452.469 110.791L440.636 112.308L438.919 127.556L427.677 127.576L436.888 68.5484L451.743 68.5337L466.911 121.654L455.271 121.709ZM444.416 78.4099L441.564 103.634L450.462 102.535L444.416 78.4099ZM503.24 61.7797L506.562 98.8312C507.097 104.941 507.458 111.521 507.647 118.572L498.644 118.476C490.429 103.508 483.803 92.3367 478.768 84.9608C479.509 92.8195 480.632 105.356 482.138 122.57L472.723 122.35C472.276 119.07 471.917 115.889 471.648 112.807C470.523 99.9498 469.929 84.9043 469.867 67.6708L480.557 67.7795C487.086 81.8239 492.779 92.4348 497.636 99.6121C495.914 83.5946 494.436 70.9821 493.202 61.7746L503.24 61.7797ZM525.395 60.805C525.652 69.2415 526.24 78.7196 527.16 89.2394C528.081 99.7592 529.265 109.319 530.714 117.919L519.871 117.904C518.232 107.126 517.031 97.3799 516.269 88.6665C515.502 79.9 514.93 70.6078 514.553 60.79L525.395 60.805ZM555.709 78.6308C556.172 75.967 556.327 73.7585 556.174 72.0052C556.02 70.2519 555.417 68.8592 554.363 67.8271C553.304 66.7419 552.004 66.2667 550.464 66.4015C548.976 66.5317 547.792 67.3847 546.913 68.9607C546.034 70.5367 545.678 72.281 545.845 74.1937C546.171 77.9128 548.575 80.9147 553.058 83.1994C557.55 85.5903 560.62 87.3293 562.267 88.4165C563.915 89.5037 565.102 90.5242 565.828 91.4779C567.649 93.9418 568.681 96.5552 568.923 99.3179C569.341 104.1 568.055 108.067 565.065 111.219C562.124 114.314 558.634 116.038 554.596 116.392C549.815 116.81 545.627 115.142 542.032 111.388C539.439 108.67 536.969 105.219 534.622 101.034L542.025 96.612C543.525 99.6929 545.277 102.27 547.278 104.343C549.329 106.359 551.39 107.276 553.462 107.095C554.79 106.979 555.948 106.449 556.936 105.506C557.925 104.563 558.344 103.242 558.196 101.541C558.042 99.788 557.236 98.2257 555.778 96.8542C554.32 95.4828 552.407 94.1243 550.041 92.7787C547.675 91.4332 545.839 90.3357 544.533 89.4862C543.223 88.5837 541.756 87.4271 540.134 86.0164C537.058 83.2875 535.317 79.6119 534.913 74.9895C534.504 70.314 535.783 66.2672 538.749 62.8489C541.711 59.3776 545.424 57.4467 549.887 57.0562C554.35 56.6657 558.247 58.0648 561.577 61.2533C564.961 64.4372 566.813 67.8621 567.134 71.5281C567.45 75.141 567.031 78.3095 565.878 81.0338L555.709 78.6308Z" fill="black"/>
<defs>
<filter id="filter0_d_15_4" x="4.12186" y="12.8448" width="582.483" height="185.741" filterUnits="userSpaceOnUse" color-interpolation-filters="sRGB">
<feFlood flood-opacity="0" result="BackgroundImageFix"/>
<feColorMatrix in="SourceAlpha" type="matrix" values="0 0 0 0 0 0 0 0 0 0 0 0 0 0 0 0 0 0 127 0" result="hardAlpha"/>
<feOffset dy="4"/>
<feGaussianBlur stdDeviation="2"/>
<feComposite in2="hardAlpha" operator="out"/>
<feColorMatrix type="matrix" values="0 0 0 0 0 0 0 0 0 0 0 0 0 0 0 0 0 0 0.25 0"/>
<feBlend mode="normal" in2="BackgroundImageFix" result="effect1_dropShadow_15_4"/>
<feBlend mode="normal" in="SourceGraphic" in2="effect1_dropShadow_15_4" result="shape"/>
</filter>
</defs>
</svg>
