<svg width="529" height="201" viewBox="0 0 529 201" fill="none" xmlns="http://www.w3.org/2000/svg">
<g filter="url(#filter0_d_15_3)">
<path d="M14.4298 8.12865L116.012 8.04718L267.244 38.3276L365.512 61.4639L524.013 43.7622L499.075 107.787L513.584 192.915L387.481 174.995L258.792 175.098L129.124 157.181L4.00002 157.281L21.7558 120.671L21.7827 86.7407L31.2332 44.1575L14.4298 8.12865Z" fill="white"/>
</g>
<path d="M49.5483 124.861C49.9236 117.634 50.5519 108.984 51.4332 98.9102C52.3201 88.7729 53.8214 75.2844 55.9371 58.4447C61.4656 56.9368 67.0351 56.4283 72.6457 56.9192C78.32 57.4156 83.1727 59.9602 87.2037 64.553C91.3041 69.0877 93.0754 74.5428 92.5176 80.9184C91.9654 87.2303 89.063 92.5014 83.8103 96.7317C78.6269 100.904 72.0513 103.734 64.0833 105.221C63.4586 112.361 62.9128 119.702 62.4458 127.242L49.5483 124.861ZM75.0321 89.1217C77.631 86.5866 79.0782 83.6294 79.3738 80.2503C79.6695 76.8713 79.0167 74.0516 77.4156 71.7915C75.8783 69.5369 74.0257 68.3148 71.858 68.1252C71.2842 68.075 69.9633 68.12 67.8952 68.2603C66.7899 77.2221 65.8372 85.9081 65.0372 94.3184C69.1654 93.3946 72.497 91.6624 75.0321 89.1217ZM112.127 131.974C106.071 131.444 101.175 128.285 97.4415 122.498C93.777 116.652 92.4301 108.183 93.4006 97.0889C94.3768 85.9316 97.435 77.0443 102.575 70.4271C107.779 63.8155 113.474 60.7802 119.658 61.3213C125.842 61.8624 130.735 65.0529 134.336 70.893C138 76.7386 139.35 85.1763 138.385 96.2062C137.42 107.236 134.332 116.089 129.123 122.764C123.913 129.439 118.248 132.509 112.127 131.974ZM118.758 72.7102C115.953 72.4648 113.312 74.7393 110.837 79.5338C108.367 84.2646 106.803 90.3916 106.145 97.9148C105.493 105.374 105.868 110.996 107.271 114.781C108.744 118.508 110.788 120.485 113.402 120.714C116.016 120.943 118.528 118.657 120.94 113.857C123.415 109.062 124.979 102.935 125.632 95.4759C126.29 87.9527 125.915 82.3306 124.506 78.6096C123.16 74.8942 121.244 72.9277 118.758 72.7102ZM143.273 132.29C145.441 117.061 147.049 103.453 148.097 91.4667C149.146 79.4805 149.803 71.6037 150.068 67.8365C157.372 65.1348 164.817 64.1158 172.404 64.7796C178.014 65.2704 182.544 67.4656 185.993 71.365C189.506 75.2701 190.979 80.4742 190.41 86.9773C189.751 94.5006 183.795 101.271 172.539 107.289C177.705 115.065 182.935 123.585 188.227 132.85L178.452 138.837C174.965 132.428 168.626 121.916 159.433 107.299C158.382 117.101 157.289 126.288 156.154 134.862L143.273 132.29ZM160.288 100.821C165.202 99.0021 169.458 96.612 173.058 93.6504C176.663 90.6252 178.583 87.7736 178.817 85.0959C179.052 82.4181 178.436 80.2763 176.97 78.6704C175.569 77.0702 173.593 76.1585 171.042 75.9354C168.492 75.7122 165.639 76.0087 162.484 76.8248C161.541 87.5997 160.81 95.5983 160.288 100.821ZM201.515 136.71C201.865 125.37 202.405 115.523 203.135 107.171C203.872 98.7555 204.83 90.0057 206.01 80.922L194.201 81.527L193.067 70.2493C199.41 69.7121 205.664 69.4562 211.829 69.4816L229.797 70.0899L230.685 80.8643C227.162 80.7488 223.184 80.6899 218.751 80.6875C217.565 89.835 216.638 98.2341 215.968 105.885C215.299 113.536 214.467 124.513 213.473 138.817L201.515 136.71ZM249.229 143.969C243.172 143.439 238.277 140.28 234.543 134.493C230.878 128.647 229.531 120.177 230.502 109.084C231.478 97.9264 234.536 89.0391 239.677 82.4219C244.881 75.8103 250.575 72.775 256.759 73.3161C262.944 73.8572 267.836 77.0477 271.437 82.8878C275.101 88.7334 276.451 97.1711 275.486 108.201C274.521 119.231 271.434 128.083 266.224 134.759C261.015 141.434 255.349 144.504 249.229 143.969ZM255.859 84.705C253.054 84.4596 250.414 86.7341 247.938 91.5286C245.469 96.2594 243.905 102.386 243.246 109.91C242.594 117.369 242.969 122.991 244.373 126.776C245.846 130.503 247.889 132.48 250.503 132.709C253.117 132.938 255.63 130.652 258.041 125.852C260.517 121.057 262.081 114.93 262.733 107.471C263.391 99.9475 263.016 94.3254 261.607 90.6044C260.262 86.889 258.346 84.9225 255.859 84.705ZM320.539 80.6307L319.51 92.3938C312.369 91.769 305.655 91.4065 299.368 91.3062C299.079 93.1439 298.664 96.4162 298.124 101.123C297.653 105.772 297.338 108.635 297.179 109.713C304.404 109.382 310.184 109.406 314.519 109.785L315.511 120.472C308.354 120.039 301.907 119.924 296.172 120.129C295.301 130.075 294.662 138.853 294.253 146.462L281.468 143.898C282.244 133.559 283.02 123.958 283.795 115.095C284.571 106.233 286.099 94.6424 288.379 80.3226C299.427 79.6188 310.147 79.7215 320.539 80.6307ZM339.447 151.862C333.39 151.332 328.494 148.173 324.761 142.386C321.096 136.54 319.749 128.07 320.72 116.977C321.696 105.819 324.754 96.9321 329.894 90.315C335.099 83.7034 340.793 80.6681 346.977 81.2091C353.161 81.7502 358.054 84.9408 361.655 90.7808C365.319 96.6264 366.669 105.064 365.704 116.094C364.739 127.124 361.652 135.977 356.442 142.652C351.232 149.327 345.567 152.397 339.447 151.862ZM346.077 92.598C343.272 92.3526 340.631 94.6272 338.156 99.4217C335.686 104.152 334.123 110.279 333.464 117.803C332.812 125.262 333.187 130.884 334.591 134.669C336.063 138.396 338.107 140.373 340.721 140.602C343.335 140.831 345.848 138.545 348.259 133.745C350.734 128.95 352.298 122.823 352.951 115.364C353.609 107.841 353.234 102.218 351.825 98.4974C350.479 94.7821 348.564 92.8156 346.077 92.598ZM372.917 150.935C373.237 137.729 373.875 125.675 374.828 114.772C375.788 103.806 377.009 93.8908 378.491 85.0263L391.11 87.2867C389.194 98.1691 387.798 108.615 386.923 118.625C386.047 128.635 385.562 136.013 385.468 140.758C387.791 140.64 393.489 140.497 402.563 140.327L403.505 151.588C398.673 151.743 391.831 152.108 382.979 152.683L372.917 150.935ZM429.888 89.8121C428.433 99.8354 427.153 111.159 426.049 123.783C424.944 136.406 424.352 147.951 424.271 158.416L411.461 156.138C411.77 143.06 412.382 131.292 413.297 120.836C414.217 110.316 415.478 99.2159 417.078 87.5349L429.888 89.8121ZM454.04 161.887C447.983 161.357 443.088 158.199 439.354 152.411C435.69 146.566 434.343 138.096 435.313 127.002C436.289 115.845 439.348 106.958 444.488 100.341C449.692 93.729 455.386 90.6937 461.571 91.2348C467.755 91.7758 472.648 94.9664 476.248 100.806C479.913 106.652 481.262 115.09 480.297 126.12C479.332 137.15 476.245 146.002 471.036 152.678C465.826 159.353 460.161 162.423 454.04 161.887ZM460.671 102.624C457.865 102.378 455.225 104.653 452.75 109.447C450.28 114.178 448.716 120.305 448.058 127.828C447.405 135.288 447.781 140.91 449.184 144.695C450.657 148.421 452.7 150.399 455.314 150.628C457.928 150.856 460.441 148.571 462.853 143.77C465.328 138.976 466.892 132.849 467.545 125.389C468.203 117.866 467.827 112.244 466.418 108.523C465.073 104.808 463.157 102.841 460.671 102.624Z" fill="black"/>
<defs>
<filter id="filter0_d_15_3" x="1.52588e-05" y="8.04718" width="528.013" height="192.868" filterUnits="userSpaceOnUse" color-interpolation-filters="sRGB">
<feFlood flood-opacity="0" result="BackgroundImageFix"/>
<feColorMatrix in="SourceAlpha" type="matrix" values="0 0 0 0 0 0 0 0 0 0 0 0 0 0 0 0 0 0 127 0" result="hardAlpha"/>
<feOffset dy="4"/>
<feGaussianBlur stdDeviation="2"/>
<feComposite in2="hardAlpha" operator="out"/>
<feColorMatrix type="matrix" values="0 0 0 0 0 0 0 0 0 0 0 0 0 0 0 0 0 0 0.25 0"/>
<feBlend mode="normal" in2="BackgroundImageFix" result="effect1_dropShadow_15_3"/>
<feBlend mode="normal" in="SourceGraphic" in2="effect1_dropShadow_15_3" result="shape"/>
</filter>
</defs>
</svg>
